Coordinates
version=1
nRows=21
nColumns=22
inDegrees=yes

Units are S.I. units (second, meters, Newtons, ...)
If the header above contains a line with 'inDegrees', this indicates whether rotational values are in degrees (yes) or radians (no).

endheader
time	pelvis_tilt	pelvis_list	pelvis_rotation	pelvis_tx	pelvis_ty	pelvis_tz	hip_flexion_r	hip_adduction_r	hip_rotation_r	knee_angle_r	ankle_angle_r	subtalar_angle_r	hip_flexion_l	hip_adduction_l	hip_rotation_l	knee_angle_l	ankle_angle_l	subtalar_angle_l	lumbar_extension	lumbar_bending	lumbar_rotation
      5.38000000	     -3.08569077	      1.37538576	   -113.53888740	      0.69709198	      0.93043787	      0.65420955	     19.35088446	     12.65926637	     -9.98020659	    -22.98379023	      6.89478657	    -11.68956721	     11.92979113	     -9.44331510	     -8.05805991	    -66.15338450	     -0.39079285	      8.40251424	     -7.97622590	      4.41139051	     -3.17523961
      5.39000000	     -3.10307870	      1.39999854	   -114.59793269	      0.69248875	      0.93140000	      0.65999634	     18.58778765	     13.03454473	     -9.13441446	    -22.68635172	      7.04943349	    -11.33624393	     13.26336514	     -9.92618906	     -8.08941948	    -67.45227556	      0.36786864	      7.62268212	     -8.01806561	      4.31856779	     -2.70833016
      5.40000000	     -3.12878287	      1.42271110	   -115.67097460	      0.68787569	      0.93238634	      0.66568160	     17.78720098	     13.40244926	     -8.28352217	    -22.34602395	      7.20012794	    -11.11843343	     14.54600163	    -10.40396382	     -8.07047374	    -68.51067551	      1.19082754	      7.05966012	     -8.05873313	      4.23449154	     -2.20234187
      5.41000000	     -3.10029704	      1.45220013	   -116.74693587	      0.68332728	      0.93334839	      0.67119852	     17.00777798	     13.70996704	     -7.33773536	    -21.99463568	      7.39119501	    -10.64064923	     15.82629245	    -10.78867612	     -7.98411127	    -69.32123458	      1.82464264	      6.25536128	     -8.07188110	      4.10221162	     -1.73510506
      5.42000000	     -3.11200552	      1.48512395	   -117.81464763	      0.67880329	      0.93428540	      0.67662672	     16.19588712	     14.03252701	     -6.43020907	    -21.61394032	      7.57259246	    -10.44739265	     17.05115512	    -11.18579074	     -7.81686621	    -69.91019415	      2.56725307	      5.83418980	     -8.09897507	      4.02090584	     -1.24757010
      5.43000000	     -3.07620264	      1.50895678	   -118.89546126	      0.67433717	      0.93520697	      0.68189792	     15.39564039	     14.29267776	     -5.42763874	    -21.23167284	      7.74328097	    -10.01414482	     18.23956947	    -11.48090807	     -7.59923057	    -70.24735497	      3.13062616	      5.27475992	     -8.11898355	      3.89095296	     -0.77019938
      5.44000000	     -3.07884004	      1.55516138	   -119.94725023	      0.66995139	      0.93602886	      0.68707739	     14.61276078	     14.56718059	     -4.48439649	    -20.86449455	      7.94015909	     -9.82880985	     19.39927491	    -11.77607432	     -7.27934090	    -70.38421783	      3.79574574	      4.95572193	     -8.14276382	      3.82493981	     -0.30787090
      5.45000000	     -3.04379995	      1.56840929	   -121.00885185	      0.66563009	      0.93685716	      0.69215755	     13.82758308	     14.76893470	     -3.48188382	    -20.51801704	      8.14542341	     -9.38957892	     20.47959867	    -11.96135565	     -6.92467537	    -70.27301203	      4.34752609	      4.56644940	     -8.18614826	      3.70927349	      0.15019837
      5.46000000	     -3.02679192	      1.61610243	   -122.03536779	      0.66144188	      0.93755462	      0.69714103	     13.10809719	     14.97409225	     -2.52767904	    -20.22312364	      8.32411693	     -9.25275455	     21.55640085	    -12.11789841	     -6.46420861	    -69.97873649	      4.97782431	      4.35107279	     -8.21591503	      3.64564380	      0.58764557
      5.47000000	     -2.98746328	      1.64502845	   -123.06137177	      0.65735522	      0.93822151	      0.70204769	     12.40837315	     15.12512603	     -1.55316262	    -19.96563271	      8.51885873	     -9.07157324	     22.56513317	    -12.18905394	     -5.97178339	    -69.46792703	      5.57339745	      4.16009196	     -8.26292038	      3.56093957	      1.01939346
      5.48000000	     -2.94059727	      1.66472136	   -124.06708716	      0.65337225	      0.93884827	      0.70691428	     11.73865270	     15.23754794	     -0.60146883	    -19.75626035	      8.72434655	     -8.87406922	     23.50906963	    -12.18220387	     -5.41738851	    -68.75097734	      6.14452726	      4.01835039	     -8.31803647	      3.47269881	      1.43685990
      5.49000000	     -2.88161741	      1.65730393	   -125.05932959	      0.64949682	      0.93947468	      0.71174859	     11.07408888	     15.29864233	      0.34911866	    -19.57454439	      8.93161221	     -8.57607794	     24.36823920	    -12.08592277	     -4.82156182	    -67.83211868	      6.66184260	      3.97239399	     -8.39755077	      3.36525047	      1.83386591
      5.50000000	     -2.82428642	      1.69440345	   -126.02178837	      0.64577480	      0.93994089	      0.71653405	     10.50114068	     15.36443860	      1.25508654	    -19.46117664	      9.17196974	     -8.45463785	     25.22854317	    -11.95677909	     -4.15527840	    -66.76253097	      7.18935240	      3.93585037	     -8.44626486	      3.30583553	      2.21334472
      5.51000000	     -2.75166353	      1.71498437	   -126.97585423	      0.64214340	      0.94037580	      0.72128799	      9.94983995	     15.39079653	      2.17225127	    -19.38337458	      9.41158317	     -8.33079035	     26.01132350	    -11.75403974	     -3.46216456	    -65.51250368	      7.63964016	      3.98151693	     -8.50677281	      3.23037822	      2.58113474
      5.52000000	     -2.67083595	      1.72877149	   -127.91790364	      0.63861382	      0.94076332	      0.72604693	      9.42331827	     15.38616155	      3.07506402	    -19.33829903	      9.65835878	     -8.20647607	     26.72218299	    -11.49020227	     -2.74024816	    -64.09859283	      8.03022971	      4.10438067	     -8.56948761	      3.15718507	      2.93586810
      5.53000000	     -2.59591498	      1.72240220	   -128.83795517	      0.63515648	      0.94113640	      0.73081938	      8.89855777	     15.35456795	      3.95457646	    -19.31964428	      9.89870273	     -8.03510734	     27.33847048	    -11.17607280	     -1.98584069	    -62.52497849	      8.37556429	      4.37633814	     -8.65432711	      3.08446019	      3.26462106
      5.54000000	     -2.51775155	      1.73725915	   -129.74998817	      0.63174731	      0.94138776	      0.73558234	      8.43029736	     15.32286031	      4.82023670	    -19.35560168	     10.18891565	     -7.90495970	     27.91149143	    -10.84662767	     -1.20811252	    -60.82558575	      8.68516257	      4.66070879	     -8.71520696	      3.03201286	      3.58692385
      5.55000000	     -2.41731388	      1.76831219	   -130.66343512	      0.62836710	      0.94152511	      0.74032427	      8.02841746	     15.27646751	      5.68166528	    -19.44999165	     10.49148536	     -7.83119720	     28.44027212	    -10.49865290	     -0.43297364	    -58.99646876	      8.91550083	      4.89714665	     -8.74266035	      2.97641712	      3.91889894
      5.56000000	     -2.35947876	      1.77155647	   -131.53989613	      0.62499974	      0.94169183	      0.74510113	      7.57931734	     15.22933259	      6.50321519	    -19.54029318	     10.76645739	     -7.65082275	     28.84552300	    -10.14583178	      0.38644031	    -57.03735763	      9.15204824	      5.39701670	     -8.82013826	      2.94083306	      4.21425933
      5.57000000	     -2.26589493	      1.81399201	   -132.41490068	      0.62165235	      0.94167295	      0.74985550	      7.22991203	     15.17657552	      7.31343707	    -19.69993493	     11.12367609	     -7.55559429	     29.24545543	     -9.79288180	      1.20606763	    -54.97958091	      9.28754184	      5.72171434	     -8.83104631	      2.90814748	      4.51587339
      5.58000000	     -2.22808656	      1.83665098	   -133.24089913	      0.61830404	      0.94168639	      0.75466022	      6.82279348	     15.13874789	      8.06845850	    -19.84079622	     11.41093132	     -7.33476008	     29.52092894	     -9.45533687	      2.08224920	    -52.80818315	      9.47225408	      6.29832299	     -8.89269180	      2.91128926	      4.76772967
